/*
 * Copyright (C) 2015 Caratarse Auth Team <lucio.benfante@gmail.com>
 *
 * This file is part of Caratarse Auth Model.
 *
 * Licensed under the Apache License, Version 2.0 (the "License");
 * you may not use this file except in compliance with the License.
 * You may obtain a copy of the License at
 *
 *  http://www.apache.org/licenses/LICENSE-2.0
 *
 * Unless required by applicable law or agreed to in writing, software
 * distributed under the License is distributed on an "AS IS" BASIS,
 * WITHOUT WARRANTIES OR CONDITIONS OF ANY KIND, either express or implied.
 * See the License for the specific language governing permissions and
 * limitations under the License.
 */
@startuml

class User {
    -uuid
    -username
    -password
}

class Authorization 

class UserAuthorization {
    -readPermission
    -writePermission
    -executionPermission
}

class GroupAuthorization {
    -readPermission
    -writePermission
    -executionPermission
}

class Group

class Role

class UserAttribute {
    -name
    -value
}

class Resource {
    -type
}

class UserRole

User "1" *- "n" UserAuthorization
UserAuthorization "n" --* "1" Authorization
UserAuthorization "0..n" *-- "m" Resource
User "1" *- "n" UserRole
UserRole "n" --* "1" Role
UserRole "0..n" *-- "m" Resource
Group "1" -* "n" GroupAuthorization
GroupAuthorization "n" -* "1" Authorization
Role "1" *-- "n" Group
UserAttribute "n" -- "1" User
Resource "1" o-- "n" Resource : sub-resource

@enduml